<?xml version="1.0" encoding="UTF-8"?>
<svg id="Layer_1" xmlns="http://www.w3.org/2000/svg" baseProfile="tiny" version="1.2" viewBox="0 0 22.1 21.1">
  <!-- Generator: Adobe Illustrator 30.6.0, SVG Export Plug-In . SVG Version: 2.1.4 Build 109)  -->
  <path d="M21.8,6.7c-.3-.7-.5-1.3-.8-2-.2-.5-.4-1.2-.7-1.7-.2-.4-.8-.8-1.1-1.1-.2-.1-.3-.4-.5-.5-.2-.1-.5-.3-.6-.4-.5-.3-1.7-.8-2.3-.6,0,0-.4-.1-.3,0-.1,0-.2,0-.4,0-.2,0-.6-.2-.8-.1-.1,0-.2,0-.4-.1-.6-.1-1.3,0-1.7.2,0,0,0,0-.2.1-.1,0-.2.2-.4.2-.1,0-.3.2-.4.2,0,0,0-.1-.2,0-.1,0-.6,0-.9,0-.4,0-.5,0-.7,0-.5,0-1,.6-1.4.9,0,0,0,0,0,0,0,0,0,0,0,0,0,0,0,0,0,0-.4.4-.6.9-.9,1.4-.1,0-.3.3-.3.4-.1.1-.1.4-.3.5-.1.1-.5.2-.7.3-.7.3-1.4.4-2.1.5-.8,0-1.5.3-2.2.5-.3,0-.6.2-.9.3S-.1,6,0,6.4c0,.1.1.2.2.3s.2.1.3.2c.2,0,.3.2.5.3.2,0,.4.2.6.2.6.2,1.4.6,2.3.8.3,0,.7.1,1,.3.1,0-.2.4-.2.6-.2.5.2.4.4.8,0,.2-.1.3-.3.5-.2.2-.4.3-.5.5-.2.2-.4.4-.5.6-.3.3-1.1,1-.7,1.5.3.3.6.3.7.4.2.3.2.8.3,1-.3.2,0,.7,0,1,0,.2-.2.3-.2.4-.1.4.3.7.3,1.2,0,.1,0,.1,0,.2,0,.1,0,.2-.1.3-.2.2,0,.7,0,1,.2.5.7.7,1.1.8.6.2,1.4.4,2,.7.7.2,1,.9,1.6,1.1.2,0,.6,0,.8,0,.3,0,.7,0,1,0,2.1,0,4.3,0,6.4,0,.3,0,.5,0,.8,0,0,0,.2,0,.3,0,.6,0,1.7.2,2-.5.1-.2,0-.8,0-1.1,0-.5-.4-.7-.6-1.1,0,0,0,0,0-.1,0,0,0-.2,0-.3,0-.1,0-.2,0-.3,0-.1-.2-.2-.2-.3,0,0,0,0,0-.1,0,0,0,0,0,0,0,0,0,0,.1,0,0,0,0-.1,0-.2,0,0,0,0,0,0,0,0,0,0,.1,0,.1,0,.3-.2.4-.4,0-.1.1-.3.2-.4.1-.1.2-.1.2-.3,0,0,.2,0,.2-.2,0-.2,0-.6.1-.9,0-.3.2-.4.3-.6,0-.3,0-.3,0-.7,0-.1.1-.1,0-.2,0-.1,0-.2-.1-.3.1-.3-.3-.5-.3-.8,0-.1-.1-.2,0-.3,0-.3.2,0,.2-.2.2-.8.5-.7.8-1.7,0-.3.2-.7.3-.9,0-.2.3-.6.4-.9.1-.5,0-1-.2-1.5Z" fill="#020202"/>
  <path d="M10.8,12.6c0-.2-.2-.1-.3,0-.1,0-.3,0-.4,0-.3.1-.5.3-.8.4s-.7.2-1,.4c-.3.2-.6.3-.8.6-.1.1-.3.1-.3.4,0,.2.2.1.4.1.6.1-.2.4-.4.2-.3,0-.2-.3-.5,0,0,0-.1,0-.1.1,0,.1.2,0,.2,0,0,0,0,0,.1,0,.1,0,.1,0,.1,0,0,.1.3.1.4,0,.2,0,.4-.2.6-.3.1,0,.3,0,.5-.1s.2-.2.4-.3c0,0,.1,0,.2-.1.1-.1.1-.3,0-.4,0,0,0,0,0-.2,0,0,0-.2.2-.2,0,0,.2-.1.3-.1,0,0,.2,0,.3,0,.2,0,.4-.2.6-.2.1,0,.3,0,.4-.1.1,0,.2-.2.1-.4s0,0,0,0Z" fill="#fdfdfd"/>
  <path d="M18.9,6.6c0,0-.2.1-.3.1-.1,0-.2-.2-.3-.2-.1,0-.2,0-.3.1-.2.3-.6.3-.8.4-.4.2-.7.3-1.1.6-.4.1-.7-.4-1.1-.4-.2,0-.7.2-.9.4-.2.2,0,.4-.2.5-.2.3.1.2.2.3,0,.1,0,.3,0,.4-.1.2-.2-.3-.5-.2-.4.1-.9.4-1.3.6-.7.3-1.1.9-1.2,1.6,0,.5.2.5.1.9,0,.3,0,.4,0,.7,0,.2,0,.3,0,.5.1.2.2.5.4.7.3.2.7-.2.9-.6,0-.1,0-.4.2-.4.3-.1.6.1.9-.1.6-.2,1.5-.5,1.8-.9.7-.7.9-1.9.8-2.8,0,0,.4-.3.5-.4.1-.1.2-.2.3-.2.4-.2,1.1-.6,1.3-.9.4-.2.5-.3.6-.8h0Z" fill="#fdfdfd"/>
  <path d="M12.7,10.6c-.3.2.4.1.3.3,0,.2-.3.2-.3.2-.1.2-.7.4-.7.6.3.6,1.1-.2,1.2-.5.2-.2,0-.2.2-.3.2-.1.3-.4.3-.6s.1-.2.1-.4,0-.3.1-.5c.1-.2.3-.5.3-.7,0,0,0,0-.1,0s0,0,0,0c0,.1-.3.2-.4.3,0,0,0,.1,0,.1s-.1,0-.1,0c0,0-.2,0-.3,0-.1,0,0,.3,0,.6,0,.2-.3.5-.4.6h0Z" fill="#020202"/>
  <path d="M13.7,11.3c-.4.5.4,0,.6,0,.5-.3.7-.8.9-1.3.2-.4.4-.4.3-.7-.1-.1-.3,0-.4,0-.1.1-.4.2-.5.3-.3.4-.6,1.1-.9,1.5h0Z" fill="#020202"/>
</svg>